<svg xmlns="http://www.w3.org/2000/svg" viewBox="0 0 24 24" fill="none">
  <!-- Open Rounded Box Container -->
  <path
    d="M 14 5 H 18 C 19.66 5 21 6.34 21 8 V 16 C 21 17.66 19.66 19 18 19 H 10 C 8.34 19 7 17.66 7 16 V 15"
    fill="none"
    stroke="#9FEF00"
    stroke-width="2.5"
    stroke-linecap="round"
    stroke-linejoin="round"
  />

  <!-- Large Sparkle Star -->
  <path
    d="M 9 3.5 Q 9 7 12.5 7 Q 9 7 9 10.5 Q 9 7 5.5 7 Q 9 7 9 3.5 Z"
    fill="#9FEF00"
    stroke="none"
  />

  <!-- Left-Top Sparkle Star -->
  <path
    d="M 4 3.5 Q 4 5.5 6 5.5 Q 4 5.5 4 7.5 Q 4 5.5 2 5.5 Q 4 5.5 4 3.5 Z"
    fill="#9FEF00"
    stroke="none"
  />

  <!-- Left-Bottom Sparkle Star -->
  <path
    d="M 5 10 Q 5 12 7 12 Q 5 12 5 14 Q 5 12 3 12 Q 5 12 5 10 Z"
    fill="#9FEF00"
    stroke="none"
  />

  <!-- "AI" text inside the box -->
  <text
    x="14.5"
    y="14.5"
    text-anchor="middle"
    font-size="6.5"
    font-weight="900"
    font-family="'Outfit', 'Segoe UI', sans-serif"
    stroke="none"
    fill="#ffffff"
  >
    AI
  </text>
</svg>
